<svg xmlns="http://www.w3.org/2000/svg" viewBox="0 0 56 34" fill="none" aria-hidden="true">
  <title>Les Hauts De Bornave</title>
  <!--JoS-->
  
  <g stroke="currentColor" stroke-width="1.3" stroke-linecap="round">
    <path d="M28 2v3.2"/>
    <path d="M20.5 4.8l1.6 2.7"/>
    <path d="M35.5 4.8l-1.6 2.7"/>
    <path d="M13.5 10.5l2.6 1.6"/>
    <path d="M42.5 10.5l-2.6 1.6"/>
    <path d="M9 18.5h3"/>
    <path d="M44 18.5h3"/>
  </g>
  
  <path d="M17 22 A11 11 0 0 1 39 22 Z" fill="currentColor"/>
  
  <g stroke="currentColor" stroke-width="1.2" stroke-linecap="round" stroke-linejoin="round" fill="none">
    
    <path d="M2 25.6 Q10 24 18 25.6 T34 25.6 T54 25.6"/>
    <path d="M4 29.2 Q11 27.8 18 29.2 T34 29.2 T52 29.2" opacity="0.45"/>
    
    <path d="M8 32.5 V26"/>
    <path d="M8 26 C5 24.8 2.5 25 .5 26"/>
    <path d="M8 26 C7 23.2 6.2 20.4 6.2 17.2"/>
    <path d="M8 26 C9.8 23.2 11 20.4 11.8 17.2"/>
    <path d="M8 26 C11 24.8 13.5 25 15.5 26"/>
    
    <path d="M48 32.5 V26"/>
    <path d="M48 26 C51 24.8 53.5 25 55.5 26"/>
    <path d="M48 26 C49 23.2 49.8 20.4 49.8 17.2"/>
    <path d="M48 26 C46.2 23.2 45 20.4 44.2 17.2"/>
    <path d="M48 26 C45 24.8 42.5 25 40.5 26"/>
  </g>
  
  <g stroke="currentColor" stroke-width="1.2" stroke-linecap="round" fill="none">
    <path d="M46 4 Q48 2.6 50 4"/>
  </g>
</svg>
